<?xml version="1.0" encoding="utf-8"?>
<!-- Generator: Adobe Illustrator 19.0.0, SVG Export Plug-In . SVG Version: 6.00 Build 0)  -->
<svg version="1.1" id="Layer_1" xmlns="http://www.w3.org/2000/svg" xmlns:xlink="http://www.w3.org/1999/xlink" x="0px" y="0px"
	 width="509.4px" height="245.1px" viewBox="-13 28.9 509.4 245.1" style="enable-background:new -13 28.9 509.4 245.1;"
	 xml:space="preserve" preserveAspectRatio="xMinYMid">
  <style type="text/css">
  	.st0{fill:#2DE0DB;}
  </style>
  <g>
  	<g>
  		<g>
  			<path class="st0" d="M109.7,28.9C41.9,28.9-13,83.8-13,151.5c0,46.6,26,87.1,64.3,107.9l20-114.6H60.6H41.5l-5.6,32
  				c0.4,0.1,1,0.1,2,0.1c3.9,0,7.5-1.3,10.4-2.4c0.5-0.2,1-0.4,1.5-0.5l8.7-3l-4.5,25.1l-2.5,1.2c-3.5,1.6-10.7,4.4-19.9,4.4
  				c-8.9,0-15.6-2.6-19.9-7.7c-4.2-5-5.7-12.1-4.2-20.6l5-28.6H0.4l4.5-25h11.9l3-17.7h29.2l-3.2,17.7h19.3h12.6h4
  				c0,0,10.4-0.1,14.5-0.2c5.2-0.2,8.6-0.7,16.7-1.4c3.1-0.3,5.4-0.2,5.4-0.2v0c16.3,0.3,25.8,10.9,29.4,24c1.7-3.5,3.8-6.7,6.3-9.5
  				c8.3-9.5,20.1-14.5,34.2-14.5c23.3,0,37.8,14.1,37.8,36.8c0,12.4-4.1,23.8-11.5,32.3c-8.3,9.5-20.1,14.5-34.2,14.5
  				c-18.4,0-31.3-8.8-35.9-23.7c-6.9,14.4-20.2,23.7-36.3,23.7c-6.5,0-12.3-1.6-17-4.7l-12.7,73.2c9.9,2.6,20.3,4,31,4h0H232
  				c0,0,0.3-119.8,0.3-122.6C232.3,83.8,177.4,28.9,109.7,28.9z"/>
  			<path class="st0" d="M120.1,155.4c0-8.6-3-13-8.9-13c-8.9,0-15.7,9.4-15.7,21.9c0,8.6,3,13,8.9,13
  				C113.4,177.3,120.1,167.8,120.1,155.4z"/>
  			<path class="st0" d="M196.4,154.7c0-12.3-6-12.3-8.6-12.3c-10.1,0-15.5,11.6-15.5,22.6c0,12.3,6,12.3,8.6,12.3
  				C190.9,177.3,196.4,165.7,196.4,154.7z"/>
  		</g>
  	</g>
  	<g>
  		<path class="st0" d="M280.5,137.2l13.8,34.5h0.1l13.7-34.5h13.3v48.9h-9.8v-33.9h-0.2l-12.6,31.1h-8.9l-12.6-31.1H277v33.9h-9.8
  			v-48.9H280.5z"/>
  		<path class="st0" d="M348.9,149.1c11.5,0,20.2,7.3,20.2,18.9s-8.9,18.9-20.2,18.9c-11.2,0-20-7.3-20-18.9
  			C328.9,156.4,337.7,149.1,348.9,149.1z M338.8,167.8c0,7.1,4.6,11.3,10.1,11.3c5.7,0,10.3-4.1,10.3-11.3s-4.6-11.2-10.3-11.2
  			C343.4,156.7,338.8,160.6,338.8,167.8z"/>
  		<path class="st0" d="M385.6,134.9v18.4c2.4-2.9,6.1-4.3,10.8-4.3c10.8,0,16.8,8.2,16.8,18.8c0,10.7-6.1,18.9-17.3,18.9
  			c-4.3,0-8.5-1.7-11-5.3l-1.2,4.6h-7.5v-51.1H385.6z M384.6,167.9c0,6.5,3.7,11.2,9.6,11.2c5.4,0,9.4-3.9,9.4-11.3
  			c0-7.3-3.9-11.2-9.4-11.2C388.3,156.7,384.6,161.4,384.6,167.9z"/>
  		<path class="st0" d="M431.8,149.7v36.3h-9.4v-28l-4.3-1.5v-6.8H431.8z M431.9,139.6c0,2.9-2.2,5.4-5.3,5.4c-3.1,0-5.3-2.4-5.3-5.4
  			c0-2.9,2.2-5.4,5.3-5.4S431.9,136.8,431.9,139.6z"/>
  		<path class="st0" d="M450.8,134.9v41.3c0,2,1.2,2.9,3.3,2.9c0.5,0,1.5-0.1,2.2-0.3v7.2c-1.9,0.3-4.3,0.7-6.4,0.7
  			c-4.4,0-8.5-1.7-8.5-9.9v-41.9H450.8z"/>
  		<path class="st0" d="M479.4,149.1c10.6,0,17,7.1,17,18c0,2-0.2,3.7-0.2,3.7h-25.7c0.4,5.7,5.4,8.3,10.5,8.3
  			c3.4,0,7.8-0.9,10.4-2.3l3.2,6.8c-3.9,2.1-9.4,3.1-13.8,3.1c-12.4,0-20.3-7.6-20.3-18.7C460.5,156.9,468.2,149.1,479.4,149.1z
  			 M487.3,164.5c-0.1-4.2-2.4-7.8-7.3-7.8c-5.2,0-8.7,2.6-9.6,7.8H487.3z"/>
  	</g>
  </g>
</svg>
